<?xml version="1.0"?>
<svg xmlns="http://www.w3.org/2000/svg" xmlns:xlink="http://www.w3.org/1999/xlink" xmlns:svgjs="http://svgjs.com/svgjs" version="1.1" width="512" height="512" x="0" y="0" viewBox="0 0 64 64" style="enable-background:new 0 0 512 512" xml:space="preserve" class=""><g><path xmlns="http://www.w3.org/2000/svg" d="m31.232 36.732h1.536v1.536h-1.536z" transform="matrix(.707 -.707 .707 .707 -17.144 33.619)" fill="#ffffff" data-original="#000000" style="" class=""/><path xmlns="http://www.w3.org/2000/svg" d="m32 32a6.978 6.978 0 0 1 -1.839-.253l1.839 1.838 1.839-1.838a6.978 6.978 0 0 1 -1.839.253z" fill="#ffffff" data-original="#000000" style="" class=""/><path xmlns="http://www.w3.org/2000/svg" d="m29.171 21a5.791 5.791 0 0 0 4.122-1.707 1 1 0 0 1 1.6.26 2.6 2.6 0 0 0 2.343 1.447h1.764v-1a2 2 0 0 0 -2-2 1 1 0 0 1 -1-1 2 2 0 0 0 -2-2h-6a3 3 0 0 0 -3 3v3z" fill="#ffffff" data-original="#000000" style="" class=""/><path xmlns="http://www.w3.org/2000/svg" d="m31.525 40.861-.486 3.894.961 1.445.961-1.442-.486-3.894a.881.881 0 0 1 -.95 0z" fill="#ffffff" data-original="#000000" style="" class=""/><path xmlns="http://www.w3.org/2000/svg" d="m53 20v16h4v-16a1 1 0 0 1 1-1h2.259l-5.259-9.016-5.259 9.016h2.259a1 1 0 0 1 1 1z" fill="#ffffff" data-original="#000000" style="" class=""/><path xmlns="http://www.w3.org/2000/svg" d="m28.217 34.197 1.057 2.115 1.312-1.313-1.586-1.585z" fill="#ffffff" data-original="#000000" style="" class=""/><path xmlns="http://www.w3.org/2000/svg" d="m39 25a1 1 0 0 0 0-2z" fill="#ffffff" data-original="#000000" style="" class=""/><path xmlns="http://www.w3.org/2000/svg" d="m10 51h44v4h-44z" fill="#ffffff" data-original="#000000" style="" class=""/><path xmlns="http://www.w3.org/2000/svg" d="m49.464 27.121a1.828 1.828 0 0 0 -1.293-3.121 1.819 1.819 0 0 0 -1.293.535l-5.132 5.132 2.387 2.785z" fill="#ffffff" data-original="#000000" style="" class=""/><path xmlns="http://www.w3.org/2000/svg" d="m25.707 38.293a1 1 0 0 1 .293.707v10h6a1 1 0 0 1 -.832-.445l-2-3a1 1 0 0 1 -.16-.679l.717-5.737-.266-.266a.989.989 0 0 1 -.459.127.959.959 0 0 1 -.16-.013 1 1 0 0 1 -.735-.54l-2-4a1 1 0 0 1 .188-1.154l.293-.293h-.586a1 1 0 0 1 -.707-.293l-1.621-1.621-2.387 2.784z" fill="#ffffff" data-original="#000000" style="" class=""/><path xmlns="http://www.w3.org/2000/svg" d="m7 14v16h4v-16a1 1 0 0 1 1-1h2.259l-5.259-9.016-5.259 9.016h2.259a1 1 0 0 1 1 1z" fill="#ffffff" data-original="#000000" style="" class=""/><path xmlns="http://www.w3.org/2000/svg" d="m14.535 27.121 5.332 5.331 2.387-2.784-5.132-5.133a1.829 1.829 0 0 0 -3.122 1.293 1.842 1.842 0 0 0 .535 1.293z" fill="#ffffff" data-original="#000000" style="" class=""/><path xmlns="http://www.w3.org/2000/svg" d="m3 57h58v4h-58z" fill="#ffffff" data-original="#000000" style="" class=""/><path xmlns="http://www.w3.org/2000/svg" d="m25 25v-2a1 1 0 0 0 0 2z" fill="#ffffff" data-original="#000000" style="" class=""/><path xmlns="http://www.w3.org/2000/svg" d="m38 39a1 1 0 0 1 .293-.707l4.422-4.423-2.387-2.784-1.621 1.621a1 1 0 0 1 -.707.293h-.586l.293.293a1 1 0 0 1 .188 1.154l-2 4a1 1 0 0 1 -.735.54.959.959 0 0 1 -.16.013.989.989 0 0 1 -.459-.127l-.266.266.717 5.737a1 1 0 0 1 -.16.679l-2 3a1 1 0 0 1 -.832.445h6z" fill="#ffffff" data-original="#000000" style="" class=""/><path xmlns="http://www.w3.org/2000/svg" d="m37 22.994a4.579 4.579 0 0 1 -3.191-1.514 7.77 7.77 0 0 1 -4.638 1.52h-2.171v2a5 5 0 0 0 10 0zm-5 6.006a3 3 0 0 1 -3-3h6a3 3 0 0 1 -3 3z" fill="#ffffff" data-original="#000000" style="" class=""/><path xmlns="http://www.w3.org/2000/svg" d="m35.783 34.197-.783-.783-1.586 1.585 1.312 1.313z" fill="#ffffff" data-original="#000000" style="" class=""/></g></svg>
