<svg width="464" height="457" viewBox="0 0 464 457" fill="none" xmlns="http://www.w3.org/2000/svg">
<path d="M223.252 269.06L231.941 260.371L240.63 269.06L231.941 277.749L223.252 269.06Z" fill="black"/>
<path d="M232 225C227.028 224.984 222.08 224.303 217.288 222.976L232 237.68L246.712 222.976C241.92 224.303 236.972 224.984 232 225V225Z" fill="black"/>
<path d="M209.368 137C215.494 137.017 221.564 135.819 227.224 133.475C232.884 131.131 238.023 127.688 242.344 123.344C243.24 122.45 244.336 121.782 245.541 121.394C246.746 121.006 248.026 120.91 249.276 121.113C250.525 121.316 251.709 121.813 252.729 122.562C253.749 123.311 254.577 124.292 255.144 125.424C256.871 128.915 259.544 131.851 262.858 133.897C266.171 135.944 269.993 137.019 273.888 137H288V129C288 124.757 286.314 120.687 283.314 117.686C280.313 114.686 276.243 113 272 113C269.878 113 267.843 112.157 266.343 110.657C264.843 109.157 264 107.122 264 105C264 100.757 262.314 96.6869 259.314 93.6863C256.313 90.6857 252.243 89 248 89H200C193.635 89 187.53 91.5286 183.029 96.0294C178.529 100.53 176 106.635 176 113V137H209.368Z" fill="black"/>
<path d="M228.2 295.888L224.312 327.04L232 338.6L239.688 327.064L235.8 295.912C234.666 296.638 233.347 297.024 232 297.024C230.653 297.024 229.334 296.638 228.2 295.912V295.888Z" fill="black"/>
<path d="M400 129V257H432V129C432 126.878 432.843 124.843 434.343 123.343C435.844 121.843 437.878 121 440 121H458.072L416 48.8721L373.928 121H392C394.122 121 396.157 121.843 397.657 123.343C399.157 124.843 400 126.878 400 129Z" fill="black"/>
<path d="M201.736 242.576L210.192 259.496L220.688 248.992L208 236.312L201.736 242.576Z" fill="black"/>
<path d="M288 169C290.122 169 292.157 168.157 293.657 166.657C295.157 165.157 296 163.122 296 161C296 158.878 295.157 156.843 293.657 155.343C292.157 153.843 290.122 153 288 153V169Z" fill="black"/>
<path d="M56 377H408V409H56V377Z" fill="black"/>
<path d="M371.712 185.968C373.758 183.923 375.152 181.316 375.717 178.479C376.282 175.641 375.992 172.7 374.885 170.027C373.777 167.354 371.902 165.069 369.496 163.463C367.09 161.856 364.261 160.999 361.368 161C359.446 160.995 357.543 161.371 355.768 162.106C353.992 162.84 352.38 163.919 351.024 165.28L309.968 206.336L329.064 228.616L371.712 185.968Z" fill="black"/>
<path d="M181.656 275.344C183.156 276.844 183.999 278.878 184 281V361H232C230.683 361 229.387 360.675 228.226 360.054C227.064 359.433 226.075 358.535 225.344 357.44L209.344 333.44C208.279 331.842 207.825 329.914 208.064 328.008L213.8 282.112L211.672 279.984C210.549 280.617 209.288 280.965 208 281C207.571 281.001 207.143 280.966 206.72 280.896C205.467 280.694 204.281 280.196 203.259 279.445C202.236 278.694 201.407 277.711 200.84 276.576L184.84 244.576C184.09 243.074 183.832 241.374 184.102 239.717C184.372 238.06 185.156 236.53 186.344 235.344L188.688 233H184C181.878 233 179.844 232.156 178.344 230.656L165.376 217.688L146.28 239.96L181.656 275.344Z" fill="black"/>
<path d="M32.0002 81.0001V209H64.0002V81.0001C64.0002 78.8783 64.8431 76.8435 66.3434 75.3432C67.8437 73.8429 69.8785 73.0001 72.0002 73.0001H90.0722L48.0002 0.87207L5.92822 73.0001H24.0002C26.122 73.0001 28.1568 73.8429 29.6571 75.3432C31.1574 76.8435 32.0002 78.8783 32.0002 81.0001Z" fill="black"/>
<path d="M92.28 185.968L134.936 228.616L154.032 206.344L112.976 165.28C110.93 163.235 108.323 161.842 105.485 161.278C102.648 160.714 99.7063 161.004 97.0332 162.111C94.3602 163.218 92.0753 165.092 90.4675 167.498C88.8596 169.903 88.0009 172.731 88 175.624C88.0105 179.501 89.5482 183.218 92.28 185.968V185.968Z" fill="black"/>
<path d="M0 425H464V457H0V425Z" fill="black"/>
<path d="M176 169V153C173.878 153 171.843 153.843 170.343 155.343C168.843 156.843 168 158.878 168 161C168 163.122 168.843 165.157 170.343 166.657C171.843 168.157 173.878 169 176 169Z" fill="black"/>
<path d="M280 281C280 278.878 280.844 276.844 282.344 275.344L317.72 239.96L298.624 217.688L285.656 230.656C284.156 232.156 282.122 233 280 233H275.312L277.656 235.344C278.844 236.53 279.628 238.06 279.898 239.717C280.168 241.374 279.91 243.074 279.16 244.576L263.16 276.576C262.593 277.711 261.764 278.694 260.741 279.445C259.719 280.196 258.532 280.694 257.28 280.896C256.857 280.966 256.429 281.001 256 281C254.712 280.965 253.451 280.617 252.328 279.984L250.2 282.112L255.936 328.008C256.175 329.914 255.721 331.842 254.656 333.44L238.656 357.44C237.925 358.535 236.935 359.433 235.774 360.054C234.613 360.675 233.317 361 232 361H280V281Z" fill="black"/>
<path d="M272 152.952C267.155 152.724 262.403 151.535 258.021 149.456C253.639 147.377 249.713 144.448 246.472 140.84C235.731 148.773 222.721 153.037 209.368 153H192V169C192 179.609 196.214 189.783 203.716 197.284C211.217 204.786 221.391 209 232 209C242.609 209 252.783 204.786 260.284 197.284C267.786 189.783 272 179.609 272 169V152.952ZM232 201C225.635 201 219.53 198.471 215.029 193.97C210.529 189.47 208 183.365 208 177H256C256 183.365 253.471 189.47 248.971 193.97C244.47 198.471 238.365 201 232 201Z" fill="black"/>
<path d="M262.264 242.576L256 236.312L243.312 248.992L253.808 259.496L262.264 242.576Z" fill="black"/>
</svg>
