<svg width="512" height="446" viewBox="0 0 512 446" fill="none" xmlns="http://www.w3.org/2000/svg">
<path d="M386.931 71.695C406.712 71.695 422.749 55.6587 422.749 35.8768C422.749 16.095 406.712 0.0585938 386.931 0.0585938C367.149 0.0585938 351.112 16.095 351.112 35.8768C351.112 55.6587 367.149 71.695 386.931 71.695Z" fill="black"/>
<path d="M481.509 107.977C481.509 107.977 439.802 75.1781 439.703 75.1007C434.356 70.8972 428.389 73.6867 422.625 75.0437C420.25 75.6037 417.714 75.8921 415.397 76.663C409.743 78.5538 404.12 80.5417 398.547 82.6658C388.09 86.6556 376.661 90.8021 367.7 97.6934C366.063 98.9496 364.397 100.352 363.332 102.148C361.786 103.033 360.39 104.227 359.281 105.769L335.345 139.017L300.926 156.229C294.577 159.402 292.005 167.122 295.181 173.47C297.434 177.974 301.971 180.575 306.685 180.575C308.615 180.575 310.577 180.138 312.421 179.213L349.67 160.587C351.529 159.658 353.137 158.291 354.351 156.6L371.364 132.971C377.574 148.867 385.693 167.475 391.052 179.51L349.602 188.123C343.545 189.38 338.987 194.398 338.313 200.549L326.853 305.123C326.566 307.728 327.055 310.218 328.048 312.451H354.049C354.63 311.139 355.073 309.743 355.238 308.237L365.568 213.975L410.423 204.653L421.529 214.84C421.066 216.429 420.837 218.11 420.904 219.853L424.185 304.382C424.296 307.24 425.188 310.02 426.765 312.412L462.719 367.015H493.539C494.828 362.717 494.34 357.919 491.683 353.878L455.408 298.791L452.296 218.638C452.239 217.17 451.965 215.758 451.533 214.422L451.518 214.099L435.654 104.617L461.252 124.748L465.33 171.158C465.918 177.847 471.528 182.884 478.118 182.882C478.495 182.882 478.878 182.864 479.258 182.831C486.328 182.208 491.555 175.977 490.935 168.903L486.368 116.955C486.059 113.418 484.299 110.171 481.509 107.977Z" fill="black"/>
<path d="M409.599 323.878H307.201V268.106H204.8V209.113H0V213.966V352.711V444.724L512 445.942L510.93 444.724H512V378.437H409.599V323.878Z" fill="black"/>
</svg>
