<svg width="228" height="175" viewBox="0 0 228 175" fill="none" xmlns="http://www.w3.org/2000/svg">
<g clip-path="url(#clip0)">
<path d="M198.958 22.1064C197.122 20.5279 195.153 19.0897 193.046 17.8144C150.694 -7.81946 107.669 33.539 81.7973 63.2644C73.0369 73.3291 65.1836 84.5989 61.6604 97.4822C54.9315 122.074 67.9821 141.196 89.7456 151.699C117.234 164.966 151.518 162.874 177.2 146.362C202.881 129.851 219.085 99.4841 218.535 68.8993C218.223 51.486 211.924 33.2659 198.958 22.1064Z" fill="url(#paint0_linear)"/>
<path d="M191.737 55.1627C206.943 81.3459 179.276 131.125 143.478 133.878C125.034 135.296 103.399 124.308 95.8096 105.336C85.8138 80.3476 103.85 50.661 128.429 40.3929C151.173 30.8874 181.336 37.2571 191.737 55.1627Z" fill="#F4A321"/>
<path d="M81.6473 158.185C79.1461 158.777 76.8224 161.207 77.1972 163.961C77.497 166.17 79.4485 167.924 81.3849 168.16C85.098 168.613 88.896 163.51 87.6666 160.548C86.8795 158.649 84.0235 157.624 81.6473 158.185Z" fill="#BE7B9E"/>
<path d="M74.4391 150.87C72.7975 151.258 71.2733 152.854 71.5182 154.658C71.7156 156.109 72.9949 157.259 74.2667 157.414C76.703 157.712 79.1941 154.363 78.3896 152.418C77.8748 151.176 75.9983 150.502 74.4391 150.87Z" fill="url(#paint1_linear)"/>
<path d="M140.867 143.784C146.396 143.784 151.636 146.362 153.055 149.782C154.227 152.606 153.163 157.168 150.344 161.405C146.753 166.804 141.444 170.292 136.821 170.292C136.456 170.292 136.089 170.269 135.734 170.227C131.189 169.673 125.792 165.193 125.005 159.408C124.033 152.262 130.509 145.775 137.171 144.202C138.34 143.924 139.582 143.784 140.867 143.784ZM140.867 139.073C139.255 139.073 137.646 139.249 136.094 139.614C127.249 141.704 119.026 150.308 120.352 160.042C121.417 167.857 128.313 174.063 135.17 174.9C135.719 174.967 136.274 175 136.824 175C149.4 175 161.558 158.01 157.395 147.973C155.119 142.496 147.98 139.073 140.867 139.073Z" fill="#FDC014"/>
<path d="M184.786 155.259C184.172 155.259 183.569 154.956 183.212 154.398C182.655 153.526 182.907 152.368 183.777 151.809C205.708 137.711 220.632 113.535 223.701 87.1396C224.133 83.4139 224.32 79.6531 224.253 75.9575C224.235 74.9227 225.055 74.0708 226.087 74.0508C227.114 74.0683 227.968 74.8551 227.988 75.8898C228.058 79.7533 227.864 83.682 227.411 87.573C224.213 115.071 208.656 140.264 185.793 154.961C185.481 155.162 185.131 155.259 184.786 155.259Z" fill="white"/>
<path d="M178.791 5.01371C178.656 5.01371 178.516 4.99867 178.379 4.9661C172.459 3.62816 166.39 3.38763 160.346 4.25454C159.326 4.40236 158.379 3.6908 158.232 2.66604C158.087 1.64129 158.796 0.694205 159.816 0.548886C166.312 -0.383165 172.834 -0.125097 179.198 1.31557C180.205 1.54357 180.837 2.54578 180.61 3.55299C180.415 4.42241 179.645 5.01371 178.791 5.01371Z" fill="#BE7B9E"/>
<path d="M112.038 25.1603C111.451 25.1603 110.874 24.8847 110.509 24.3661C109.915 23.5192 110.117 22.3516 110.962 21.7578C123.715 12.748 135.881 6.40906 147.122 2.91637C148.109 2.6107 149.154 3.16191 149.459 4.14908C149.764 5.13626 149.214 6.18607 148.227 6.49174C137.36 9.86917 125.546 16.0352 113.113 24.8171C112.786 25.0501 112.411 25.1603 112.038 25.1603Z" fill="#F5B20E"/>
<path d="M56.3553 166.82L56.2222 166.942C55.2648 167.833 53.9918 168.311 52.6817 168.272C51.3716 168.233 50.1309 167.679 49.2311 166.733C47.1448 164.519 45.2535 162.132 43.5777 159.597C38.9808 152.64 38.2826 147.221 37.3132 142.747L46.5583 139.339C47.6776 143.666 48.3746 148.338 52.2547 154.658C53.7217 157.044 54.9623 158.386 56.1494 159.398C56.6893 159.849 57.127 160.409 57.4337 161.04C57.7403 161.671 57.9089 162.36 57.9283 163.061C57.9478 163.763 57.8177 164.46 57.5465 165.108C57.2754 165.756 56.8694 166.339 56.3553 166.82Z" fill="#EAEEF0" stroke="#231F20" stroke-width="0.3"/>
<path d="M49.1192 141.25C49.3111 141.808 49.3904 142.398 49.3528 142.986C49.3151 143.575 49.1612 144.15 48.8998 144.68C48.6385 145.21 48.2747 145.683 47.8295 146.073C47.3842 146.463 46.8661 146.762 46.3048 146.953L39.2524 149.354C39.031 149.43 38.7968 149.461 38.5632 149.447C38.3296 149.433 38.1011 149.373 37.8909 149.271C37.6808 149.168 37.4931 149.026 37.3386 148.851C37.1841 148.676 37.0659 148.473 36.9907 148.252L33.7837 138.912L46.7909 134.489L49.1192 141.25Z" fill="#7A1E7A"/>
<path d="M46.3048 146.953L39.2524 149.354C39.031 149.43 38.7968 149.461 38.5632 149.447C38.3296 149.433 38.1011 149.373 37.8909 149.271C37.6808 149.168 37.4931 149.026 37.3386 148.851C37.1841 148.676 37.0659 148.473 36.9907 148.252L33.7837 138.912L46.7909 134.489L49.1138 141.252C49.5007 142.378 49.4221 143.611 48.8954 144.68C48.3687 145.749 47.4368 146.566 46.3048 146.953Z" stroke="#231F20"/>
<path d="M87.8011 100.028C93.9526 117.951 95.4533 133.67 91.1478 135.134C90.985 135.19 90.8155 135.223 90.6439 135.234C90.383 135.255 90.1205 135.234 89.8664 135.172C87.3406 134.581 83.8931 130.459 80.3743 124.12C77.5629 119.052 74.7015 112.568 72.219 105.335C66.616 89.0168 64.8739 74.524 67.8556 70.9655C68.0813 70.7555 68.2036 70.6194 68.2335 70.594C68.4233 70.4391 68.6394 70.3192 68.8715 70.2398C73.1681 68.7608 81.6475 82.1031 87.8011 100.028ZM90.476 130.693C92.8341 129.89 90.452 116.73 85.1542 101.302C79.8563 85.8739 73.6502 74.023 71.2858 74.8194C68.9213 75.6159 71.3116 88.7821 76.6095 104.21C79.3778 112.269 82.3917 119.37 84.9817 124.183C87.3466 128.58 89.3482 131.074 90.476 130.693Z" fill="#92278F"/>
<path d="M85.1529 101.303C90.4507 116.731 92.8321 129.883 90.4747 130.694C89.3488 131.075 87.3469 128.577 84.986 124.183C82.3999 119.37 79.3831 112.278 76.6138 104.211C71.316 88.7824 68.9346 75.6305 71.2901 74.8197C73.6456 74.009 79.8548 85.8729 85.1529 101.303Z" fill="#7A1E7A"/>
<path d="M80.3621 124.128C83.8808 130.466 87.3227 134.589 89.8542 135.18C85.2578 134.806 61.7897 132.962 57.7078 133.768C56.3249 134.042 53.4724 135.088 50.0225 136.373C48.6962 133.926 47.2703 130.919 45.8318 127.511C50.608 125.589 55.1113 124.002 57.0663 123.973C61.5559 123.893 72.7034 124.017 80.3621 124.128Z" fill="#CEC9C4"/>
<path d="M72.2122 105.334C74.6939 112.559 77.5561 119.052 80.3625 124.128C72.6988 124.024 61.5513 123.901 57.0672 123.978C55.1125 124.011 50.6089 125.594 45.8327 127.517C44.456 124.262 43.0712 120.635 41.7495 116.787C39.2156 109.41 37.3831 102.545 36.4305 97.2921C41.1204 95.4023 45.3453 93.4386 46.6774 92.0257C49.846 88.6785 65.2274 73.5354 67.8479 70.9555C64.867 74.5233 66.6091 89.0161 72.2122 105.334Z" fill="#EAEEF0"/>
<path d="M45.8377 127.509C47.2762 130.917 48.7021 133.923 50.0284 136.37L47.738 137.228C43.5139 138.812 38.7362 140.575 34.754 141.715C31.6195 142.612 28.9795 143.122 27.4886 142.849C22.8169 141.992 16.4005 140.667 11.8984 128.093C13.8098 130.822 18.9668 136.28 28.9479 134.633C29.674 134.508 30.3796 134.285 31.0455 133.971C33.4197 132.871 39.847 129.922 45.8377 127.509Z" fill="#7A1E7A"/>
<path d="M41.7539 116.78C43.0755 120.626 44.4604 124.254 45.8372 127.509C39.8465 129.922 33.4116 132.872 31.0434 133.975C30.3776 134.29 29.6719 134.512 28.9458 134.637C18.9643 136.28 13.8074 130.822 11.8964 128.097C11.1374 125.94 10.499 123.743 9.98395 121.516C9.98395 121.516 7.62543 109.774 20.3022 103.108C20.3022 103.108 28.9549 100.297 36.4312 97.2846C37.3856 102.537 39.22 109.403 41.7539 116.78Z" fill="#92278F"/>
<path d="M11.8984 128.093C16.4001 140.664 22.8169 141.992 27.4883 142.845C28.9791 143.118 31.6192 142.608 34.7536 141.711C38.7321 140.572 43.5097 138.808 47.7377 137.224L50.028 136.366C53.4774 135.076 56.3299 134.03 57.7133 133.761C61.7952 132.956 85.2558 134.801 89.8597 135.174" stroke="#231F20"/>
<path d="M68.2258 70.5834C68.2034 70.6082 68.0727 70.7356 67.8479 70.955C65.2275 73.5348 49.846 88.6779 46.682 92.0134C45.3494 93.4207 41.125 95.39 36.4351 97.2798C28.9588 100.293 20.3062 103.103 20.3062 103.103C7.62133 109.764 9.98792 121.512 9.98792 121.512C10.5018 123.734 11.1386 125.927 11.8954 128.079" stroke="#231F20"/>
<path d="M89.8666 135.173C90.1207 135.234 90.3832 135.255 90.644 135.234C90.8157 135.224 90.9852 135.19 91.1479 135.135C95.4535 133.67 93.9528 117.951 87.8012 100.028C81.6497 82.105 73.1683 68.761 68.8723 70.2267C68.6402 70.3061 68.4242 70.426 68.2344 70.5809V70.5809C68.0949 70.6904 67.9682 70.8151 67.8565 70.9525C64.8756 74.5203 66.6186 89.0224 72.2207 105.331C74.6933 112.559 77.5554 119.051 80.3618 124.128C83.8806 130.466 87.3224 134.589 89.854 135.179L89.8666 135.173Z" stroke="#231F20"/>
<path d="M100.163 70.4557L103.794 69.5422L103.965 86.6494L100.357 87.5571L100.163 70.4557ZM118.035 83.1095C116.923 81.4425 115.733 79.795 114.465 78.1671C113.213 76.5352 111.917 75.0218 110.576 73.6268L110.704 84.954L107.143 85.85L106.948 68.7486L109.718 68.0517C110.211 68.505 110.753 69.0533 111.344 69.6966C111.947 70.3205 112.572 71.0044 113.222 71.7485C113.871 72.4926 114.53 73.2755 115.198 74.0972C115.863 74.9034 116.503 75.7076 117.117 76.51L116.979 66.2247L120.587 65.3171L120.758 82.4243L118.035 83.1095ZM128.443 80.4908C127.863 79.2344 127.279 77.9294 126.691 76.576C126.119 75.2187 125.556 73.8671 125.003 72.5214C124.45 71.1757 123.93 69.8629 123.443 68.583C122.952 67.2876 122.506 66.0717 122.104 64.9353L125.991 63.9574C126.26 64.8301 126.555 65.7707 126.874 66.7792C127.206 67.7683 127.549 68.7709 127.903 69.787C128.254 70.7877 128.605 71.7884 128.956 72.789C129.318 73.7703 129.665 74.6894 129.996 75.5466C130.274 74.6187 130.563 73.6054 130.864 72.5068C131.181 71.4042 131.488 70.2629 131.785 69.0827C132.097 67.8987 132.392 66.7108 132.67 65.519C132.963 64.3234 133.219 63.1782 133.439 62.0836L137.303 61.1115C136.994 62.377 136.653 63.7415 136.278 65.2051C135.904 66.6686 135.487 68.1924 135.028 69.7763C134.584 71.3564 134.094 72.9812 133.557 74.6506C133.032 76.3006 132.46 77.9624 131.841 79.6358L128.443 80.4908ZM139.315 60.6051L142.946 59.6916L143.117 76.7988L139.51 77.7065L139.315 60.6051ZM157.691 55.9818L157.713 59.2181L152.989 60.4069L153.138 74.2778L149.507 75.1913L149.358 61.3204L144.633 62.5091L144.611 59.2728L157.691 55.9818ZM159.649 72.6396L159.454 55.5382L169.998 52.8855L170.002 56.0521L163.09 57.7912L163.165 61.2371L169.263 59.7028L169.279 62.817L163.181 64.3512L163.246 68.5421L170.694 66.6683L170.704 69.8581L159.649 72.6396ZM188.604 65.3546C188.393 64.7147 188.177 64.0844 187.955 63.4638C187.744 62.8238 187.532 62.2091 187.317 61.6196L180.777 63.2651C180.573 63.96 180.372 64.6704 180.175 65.3964C179.99 66.1029 179.805 66.8425 179.62 67.615L176.478 68.4055C177.01 66.5226 177.52 64.7446 178.006 63.0713C178.508 61.3941 178.997 59.7946 179.472 58.2727C179.962 56.7469 180.453 55.2871 180.944 53.8932C181.446 52.4799 181.956 51.0977 182.474 49.7465L185.197 49.0613C186.275 51.2484 187.338 53.6702 188.386 56.3268C189.43 58.9679 190.488 61.7293 191.56 64.6109L188.604 65.3546ZM183.969 52.6372C183.609 53.701 183.209 54.8988 182.769 56.2305C182.34 57.5427 181.9 59.0064 181.448 60.6214L186.499 59.3507C186.129 58.2724 185.729 57.1768 185.301 56.0637C184.884 54.9312 184.44 53.789 183.969 52.6372ZM107.259 114.693L107.065 97.5919L117.003 95.0914L117.036 97.6817L110.007 99.4501L110.06 103.891L116.274 102.328L116.302 104.895L110.111 106.452L110.192 113.955L107.259 114.693ZM125.818 99.7288C125.48 99.6983 125.125 99.6969 124.752 99.7246C124.38 99.7523 123.953 99.8267 123.472 99.9477C123.208 100.014 122.935 100.108 122.652 100.228C122.365 100.334 122.128 100.443 121.942 100.555L122.063 110.969L119.246 111.677L119.117 99.3606C119.714 98.9794 120.373 98.6155 121.095 98.2691C121.812 97.9071 122.613 97.6149 123.497 97.3923C123.684 97.3455 123.897 97.3083 124.138 97.2808C124.374 97.2377 124.605 97.2044 124.83 97.1808C125.071 97.1533 125.29 97.1394 125.488 97.1391C125.701 97.1349 125.886 97.1462 126.041 97.1731L125.818 99.7288ZM130.87 108.753L128.077 109.456L127.924 96.5509L130.74 95.8423L130.87 108.753ZM129.44 94.2145C129.021 94.3199 128.625 94.2875 128.252 94.1173C127.879 93.9471 127.63 93.6137 127.505 93.1172C127.361 92.5431 127.436 92.0211 127.73 91.5511C128.04 91.0772 128.451 90.7758 128.963 90.647C129.382 90.5416 129.78 90.5817 130.156 90.7674C130.545 90.9337 130.801 91.2651 130.926 91.7616C131.071 92.3357 130.988 92.8597 130.678 93.3336C130.364 93.792 129.952 94.0856 129.44 94.2145ZM133.382 103.443C133.121 102.404 133.032 101.362 133.116 100.318C133.211 99.2546 133.475 98.2724 133.909 97.3715C134.353 96.4511 134.962 95.6547 135.733 94.9822C136.504 94.3097 137.44 93.8348 138.542 93.5577C139.721 93.261 140.713 93.3332 141.517 93.7744C142.321 94.2156 142.842 94.9094 143.08 95.8559C143.326 96.8334 143.285 97.6853 142.956 98.4115C142.627 99.1376 142.118 99.769 141.428 100.306C140.753 100.838 139.943 101.29 138.997 101.66C138.066 102.026 137.108 102.349 136.123 102.63C136.115 102.665 136.115 102.698 136.123 102.729L136.181 102.962C136.537 104.374 137.606 104.855 139.391 104.406C140.446 104.141 141.446 103.658 142.392 102.958L143.199 105.181C142.869 105.445 142.385 105.749 141.745 106.091C141.105 106.433 140.351 106.714 139.482 106.933C138.613 107.151 137.837 107.214 137.154 107.122C136.471 107.03 135.873 106.818 135.36 106.485C134.863 106.148 134.451 105.724 134.124 105.212C133.793 104.685 133.546 104.095 133.382 103.443ZM138.703 95.9673C138.237 96.0844 137.819 96.2887 137.446 96.5803C137.074 96.8719 136.766 97.2217 136.523 97.6295C136.279 98.0373 136.089 98.4974 135.954 99.0099C135.831 99.5029 135.779 100.019 135.799 100.558C137.646 100.028 138.939 99.4633 139.679 98.8646C140.435 98.262 140.715 97.5727 140.52 96.7969C140.442 96.4866 140.256 96.2366 139.96 96.0469C139.681 95.8533 139.261 95.8267 138.703 95.9673ZM145.507 92.6715C146.081 92.3292 146.744 91.9809 147.496 91.6266C148.26 91.2529 149.115 90.947 150.062 90.7089C151.489 90.3497 152.624 90.4353 153.467 90.9657C154.31 91.4961 154.88 92.3509 155.177 93.5301C155.259 93.856 155.315 94.2129 155.347 94.6009C155.39 94.9695 155.422 95.3575 155.442 95.7649L155.516 102.552L152.7 103.261L152.609 96.7995C152.6 96.4386 152.59 96.07 152.578 95.6936C152.566 95.3172 152.526 94.9641 152.46 94.6344C152.339 94.0874 152.094 93.6706 151.725 93.384C151.371 93.0935 150.799 93.0478 150.007 93.2469C149.34 93.4147 148.784 93.629 148.338 93.8897L148.464 104.326L145.648 105.035L145.507 92.6715ZM163.034 101.007C162.305 101.19 161.647 101.232 161.061 101.132C160.471 101.017 159.952 100.792 159.506 100.459C159.074 100.122 158.709 99.6863 158.409 99.1513C158.11 98.6162 157.876 98.0151 157.708 97.3479C157.446 96.3083 157.373 95.2626 157.488 94.2107C157.614 93.1395 157.92 92.1553 158.403 91.2582C158.899 90.3416 159.58 89.5432 160.449 88.8627C161.313 88.1668 162.366 87.6627 163.607 87.3504C163.762 87.3114 163.95 87.2723 164.171 87.2331C164.393 87.194 164.643 87.1723 164.922 87.168L164.856 81.4927L167.671 80.2894L167.803 94.2884C167.815 94.6648 167.845 95.045 167.892 95.4291C167.95 95.7938 168.021 96.1391 168.103 96.4649C168.208 96.8839 168.352 97.2931 168.535 97.6925C168.718 98.0919 168.952 98.4951 169.236 98.9022L166.816 99.907C166.563 99.6241 166.316 99.2655 166.075 98.8313C165.773 99.2702 165.378 99.6996 164.889 100.119C164.397 100.524 163.779 100.82 163.034 101.007ZM164.938 89.5894C164.627 89.6015 164.262 89.6603 163.843 89.7657C163.13 89.9453 162.517 90.2644 162.006 90.7231C161.49 91.1662 161.087 91.6965 160.797 92.314C160.503 92.9159 160.322 93.572 160.253 94.2823C160.2 94.9886 160.261 95.6909 160.437 96.3891C160.526 96.746 160.641 97.0718 160.781 97.3665C160.937 97.6573 161.122 97.8996 161.336 98.0933C161.549 98.287 161.798 98.4225 162.081 98.4996C162.38 98.5729 162.716 98.5627 163.088 98.469C163.585 98.3441 163.994 98.1339 164.315 97.8385C164.653 97.5392 164.947 97.1682 165.199 96.7254C165.132 96.3957 165.077 96.0465 165.034 95.6779C165.006 95.3054 164.988 94.9387 164.98 94.5778L164.938 89.5894ZM173.942 85.3193C173.947 85.8626 173.938 86.4505 173.916 87.0831C173.905 87.6962 173.883 88.3288 173.849 88.9808C173.815 89.6328 173.769 90.2712 173.712 90.896C173.655 91.5209 173.593 92.0973 173.528 92.6251L171.55 93.1229C171.401 92.0055 171.269 90.8919 171.155 89.7823C171.037 88.6571 170.973 87.4193 170.963 86.0689L170.91 81.5287L173.889 80.7791L173.942 85.3193ZM172.297 94.7166C172.794 94.5917 173.232 94.6299 173.613 94.8311C173.994 95.0323 174.252 95.4045 174.389 95.9475C174.467 96.2579 174.477 96.5605 174.419 96.8555C174.373 97.1311 174.28 97.3854 174.141 97.6185C173.998 97.836 173.814 98.0226 173.589 98.1781C173.38 98.3298 173.151 98.4368 172.903 98.4993C172.406 98.6242 171.969 98.5938 171.593 98.4081C171.228 98.203 170.977 97.8289 170.84 97.2858C170.676 96.6341 170.751 96.0791 171.065 95.6207C171.374 95.1468 171.785 94.8455 172.297 94.7166Z" fill="white"/>
</g>
<defs>
<linearGradient id="paint0_linear" x1="132.481" y1="67.2785" x2="224.196" y2="339.329" gradientUnits="userSpaceOnUse">
<stop stop-color="#FEC200"/>
<stop offset="1" stop-color="#FD5025"/>
</linearGradient>
<linearGradient id="paint1_linear" x1="78.0884" y1="132.434" x2="61.6195" y2="246.23" gradientUnits="userSpaceOnUse">
<stop stop-color="#FEC200"/>
<stop offset="1" stop-color="#FD5025"/>
</linearGradient>
<clipPath id="clip0">
<rect width="228" height="175" fill="white"/>
</clipPath>
</defs>
</svg>
