<?xml version="1.0" encoding="UTF-8"?>
<!-- Generator: Adobe Illustrator 25.3.1, SVG Export Plug-In . SVG Version: 6.00 Build 0)  -->
<svg xmlns="http://www.w3.org/2000/svg" xmlns:xlink="http://www.w3.org/1999/xlink" version="1.1" id="Capa_1" x="0px" y="0px" viewBox="0 0 511.867 511.867" style="enable-background:new 0 0 511.867 511.867;" xml:space="preserve" width="512" height="512">
<g>
	<g>
		<path style="fill:#FFFFFF;" d="M255.868,511.547c-112.936,0-212.657-76.327-245.353-184.071    c-30.267-99.738,6.525-210.255,88.302-273.965c88.79-69.174,217.692-71.078,308.269-4.543c0,0,11.734-4.734,11.747-4.739    c8.126-3.278,17.713,1.261,20.375,9.549c0.17,0.53,4.029,12.582,9.341,33.235c40.859,46.679,63.318,106.375,63.318,168.535    C511.867,396.707,397.027,511.547,255.868,511.547z"/>
	</g>
	<g>
		<g>
			<path style="fill:#7B50B6;" d="M496.5,255.549c0,132.891-107.742,240.633-240.633,240.633     c-58.417,0-111.994-20.821-153.661-55.446c-0.435-0.358-0.871-0.717-1.306-1.127c-16.775-14.086-31.577-30.451-43.921-48.608     c-0.461-0.615-0.871-1.255-1.255-1.87c-25.585-38.21-40.49-84.181-40.49-133.583c0-132.891,107.742-240.633,240.633-240.633     C388.758,14.915,496.5,122.657,496.5,255.549z"/>
		</g>
		<g>
			<g>
				<g>
					<g>
						<path style="fill:#58304D;" d="M330.854,472.621H194.838l9.143-10.884h14.214c0.487-5.634,1.972-10.987,4.328-15.853        c0.205-0.461,0.435-0.922,0.691-1.383c7.581-14.572,22.819-24.509,40.387-24.509h0.359v-56.855        c0-0.717,0.589-1.306,1.306-1.306s1.306,0.589,1.306,1.306v56.983c14.905,0.973,27.838,9.066,35.419,20.949        c0.282,0.436,0.564,0.896,0.845,1.332c3.381,5.762,5.557,12.318,6.147,19.336h8.784L330.854,472.621z"/>
					</g>
					<g>
						<g>
							<path style="fill:#FFE7E1;" d="M302.836,442.401c-0.205,0.461-0.435,0.922-0.666,1.383c-0.538,1.076-1.332,2.433-2.587,3.432         c-3.124,2.459-7.529,1.537-10.27-0.358c-2.254-1.562-3.893-3.765-5.301-5.967c0.025,3.637-0.589,7.324-1.742,10.756         c-0.435,1.281-1.127,2.843-2.612,3.406c-1.127,0.435-2.51,0.179-4.072-0.768c-5.148-3.125-7.862-8.579-10.013-14.7         c-0.077,3.047-0.41,6.197-1.562,9.117c-1.537,3.918-5.276,7.965-10.116,8.093c-0.103,0.026-0.179,0.026-0.256,0.026         c-5.097,0-9.245-4.43-10.705-8.861c-1.152-3.432-1.178-7.068-0.922-10.551c-1.767,3.38-4.123,6.48-6.915,9.092         c-1.383,1.306-3.534,3.048-6.095,3.176c-2.484,0.077-5.02-1.408-6.479-3.791c0.205-0.461,0.435-0.922,0.691-1.383         c1.127,2.407,3.458,4.046,5.711,3.893c2.126-0.103,3.944-1.562,5.301-2.817c3.611-3.381,6.428-7.581,8.195-12.19         c0.103-0.307,0.436-0.486,0.743-0.41c0.307,0.077,0.512,0.384,0.487,0.692c-0.461,4.43-0.999,9.424,0.486,13.881         c1.332,3.995,4.994,7.99,9.501,7.99c0.051,0,0.128,0,0.205-0.026c4.277-0.102,7.581-3.739,8.989-7.299         c1.562-3.97,1.511-8.554,1.46-12.575c0-0.333,0.23-0.589,0.538-0.64c0.307-0.051,0.615,0.128,0.717,0.435         c2.331,7.35,4.892,14.239,10.705,17.748c1.204,0.743,2.202,0.948,2.945,0.666c0.999-0.359,1.511-1.588,1.869-2.612         c1.357-4.072,1.921-8.451,1.588-12.728c-0.026-0.307,0.153-0.564,0.435-0.666c0.282-0.077,0.589,0.026,0.743,0.282         c1.613,2.715,3.457,5.763,6.198,7.657c2.459,1.716,6.249,2.408,8.759,0.435c0.82-0.666,1.511-1.588,2.254-3.022         c0.359-0.691,0.666-1.408,0.948-2.126C302.273,441.504,302.555,441.965,302.836,442.401z"/>
						</g>
					</g>
				</g>
				<g>
					<g>
						<g>
							<g>
								<path style="fill:#A2B7FF;" d="M397.613,236.776c0,43.64-35.028,108.177-35.028,108.177          c-25.124,19.592-57.213,31.347-92.197,31.347c-15.597,0-30.655-2.33-44.767-6.684c-19.643-6.018-37.468-15.93-52.501-28.811          c-29.913-25.508-30.011-52.552-30.011-93.913c0-7.299-9.085-22.837-7.958-29.803c3.739-23.177,18.506-64.11,18.506-64.11          c22.025-27.966,54.78-47.763,92.427-53.781c7.914-1.281,16.032-1.946,24.304-1.946c7.837,0,15.545,0.589,23.049,1.742          c0,0,24.646,28.22,46.44,51.089c3.893,4.072,45.936,1.104,49.316,5.586c11.038,14.752,19.157,31.629,23.485,49.889          C415.086,215.597,397.613,226.046,397.613,236.776z"/>
							</g>
						</g>
					</g>
				</g>
				<g>
					<g>
						<path style="fill:#FFD27B;" d="M389.194,155.669c-3.995,4.405-5.89,10.987-9.808,15.725        c-7.683,9.245-21.487,9.937-33.498,9.117c-11.985-0.82-25.2-2.074-34.958,4.968c-2.279,1.665-4.354,3.867-5.02,6.607        c-1.511,6.198,4.61,11.678,10.628,13.804c5.993,2.151,12.831,2.766,17.645,6.94c6.582,5.711,6.3,17.492-0.563,22.844        c-5.148,4.021-12.19,4.2-18.593,5.455c-6.428,1.255-13.522,4.84-14.47,11.294c-0.538,3.713,1.178,7.35,2.843,10.705        c3.918,7.811,8.093,15.904,8.4,24.637c0.307,8.759-4.533,18.388-13.01,20.463c-10.705,2.612-21.333-7.376-32.166-5.301        c-9.527,1.793-14.879,11.986-17.236,21.385c-0.819,3.278-1.588,6.812-4.149,9.015c-3.278,2.817-8.528,2.202-12.088-0.307        c-3.534-2.51-5.762-6.454-7.708-10.321c-4.354-8.708-8.067-18.055-8.195-27.787c-0.128-9.732,3.918-20.002,12.165-25.175        c2.689-1.665,5.813-2.843,7.709-5.378c5.327-7.043-2.868-16.979-1.281-25.687c1.229-6.838,8.298-11.089,15.11-12.523        c6.787-1.434,13.906-0.948,20.616-2.791c6.633-1.818,12.959-6.48,14.752-13.138c1.793-6.659-2.638-14.879-9.501-15.417        c-12.728-0.973-17.466,20.924-30.246,20.898c-12.754-0.025-15.545-21.077-27.966-24.048c-4.61-1.101-9.348,0.691-14.086,1.05        c-4.712,0.384-10.526-1.69-11.166-6.377c-0.717-5.045,4.866-8.528,9.732-10.039c4.866-1.511,10.705-3.227,12.165-8.119        c0.82-2.74-0.102-5.685-0.051-8.528c0.077-7.76,7.197-13.881,14.649-15.955c7.452-2.1,15.392-1.229,23.126-1.332        c7.76-0.102,16.083-1.485,21.59-6.94c10.782-10.705,8.144-25.994,18.875-36.417c33.421,5.071,63.078,20.975,84.872,43.845        C382.202,146.91,385.813,151.187,389.194,155.669z"/>
					</g>
					<g>
						<path style="fill:#FFD27B;" d="M416.366,236.776c0,43.64-20.949,82.593-53.781,108.177c-0.922-1.255-1.639-2.612-2.177-4.072        c-2.484-6.71-0.435-14.854,4.892-19.617c2.612-2.356,6.3-4.687,5.942-8.195c-0.231-2.023-1.844-3.586-3.125-5.199        c-6.121-7.658-5.301-19.976,1.767-26.763c8.477-8.093,24.125-9.169,27.557-20.386c4.251-13.958-9.758-26.123-3.099-41.284        c3.586-8.118,10.398-13.957,18.337-13.881C415.086,215.597,416.366,226.046,416.366,236.776z"/>
					</g>
					<g>
						<path style="fill:#FFD27B;" d="M199.115,311.686c-3.97,11.448-13.932,19.617-23.433,27.147        c-0.845,0.666-1.69,1.332-2.561,1.972c-29.913-25.508-48.736-62.668-48.736-104.029c0-7.299,0.589-14.47,1.716-21.436        c3.739-23.177,13.445-44.459,27.557-62.361c3.253,0.563,6.018,2.203,7.99,5.199c4.84,7.427-1.05,16.928-6.095,24.227        c-6.069,8.81-11.192,18.516-13.087,29.042c-1.127,6.198,0,14.239,5.993,16.211c5.865,1.946,12.268-3.56,18.158-1.665        c5.122,1.665,6.992,8.298,5.634,13.497c-1.357,5.224-4.968,9.476-7.811,14.034c-5.404,8.631-6.94,22.332,2.1,26.993        c5.865,3.047,13.113,0.435,19.592,1.793C197.988,284.796,203.084,300.238,199.115,311.686z"/>
					</g>
				</g>
				<g>
					<g>
						<path style="fill:#58304D;" d="M277.301,103.69c0.724,0,1.31-0.587,1.31-1.309V78.979c0-0.723-0.587-1.309-1.31-1.309        c-0.724,0-1.311,0.587-1.311,1.309v23.403C275.99,103.104,276.577,103.69,277.301,103.69z"/>
					</g>
				</g>
				<g>
					<g>
						<path style="fill:#58304D;" d="M268.445,396.385c7.631,0,15.306-0.534,22.81-1.588c2.088-0.293,3.541-2.223,3.248-4.309        c-0.29-2.089-2.225-3.544-4.308-3.249c-7.155,1.005-14.474,1.515-21.75,1.515c-85.459,0-154.986-69.527-154.986-154.986        c0-85.459,69.527-154.986,154.986-154.986c11.285,0,22.542,1.219,33.461,3.622c2.069,0.441,4.096-0.849,4.548-2.906        c0.452-2.059-0.848-4.094-2.906-4.547c-11.458-2.521-23.268-3.8-35.102-3.8c-89.668,0-162.617,72.949-162.617,162.617        S178.778,396.385,268.445,396.385z"/>
					</g>
				</g>
			</g>
			<g>
				<g>
					<path style="fill:#FFA71D;" d="M169.996,47.184l-9.553,25.892c-0.23,0.666-0.64,1.204-1.204,1.639       c-1.281,0.948-3.97,3.048-7.785,6.326c0,0-35.005,13.929-50.806,33.444c-15.597,19.31-19.955,60.75-19.955,60.75       c-2.023,4.584-3.483,8.323-4.43,10.859c-0.743,1.972-2.971,2.894-4.866,2.023l-26.558-11.883       c-1.741-0.768-2.587-2.715-1.972-4.482c0.794-2.254,2.023-5.634,3.765-9.834c0,0,28.464-25.399,43.677-45.144       c18.029-23.408,39.864-60.549,39.864-60.549c3.278-2.638,5.583-4.431,6.582-5.173c0.358-0.256,0.768-0.461,1.178-0.563       l27.659-8.067C168.434,41.601,171.046,44.367,169.996,47.184z"/>
				</g>
				<g>
					<path style="fill:#FFD27B;" d="M151.454,81.041c-2.894,2.484-6.428,5.66-10.449,9.501c-0.82,0.794-1.665,1.588-2.51,2.433       c-7.401,7.273-16.211,16.698-25.61,28.299c-10.782,13.343-19.208,27.556-25.329,39.517c-0.768,1.46-1.46,2.894-2.151,4.277       c-1.818,3.688-3.38,7.119-4.712,10.167c-10.756-5.788-22.229-10.27-34.061-13.318c1.332-3.227,2.971-6.966,4.917-11.063       c0.948-2.023,1.998-4.149,3.124-6.351c5.404-10.577,12.677-22.844,22.025-34.983c12.6-16.365,28.018-31.27,40.131-42.001       c0.999-0.871,1.972-1.716,2.894-2.535c4.047-3.483,7.606-6.454,10.449-8.759C137.061,64.676,144.207,72.897,151.454,81.041z"/>
				</g>
				<g>
					<path style="fill:#58304D;" d="M87.557,160.791c-0.768,1.46-1.46,2.894-2.151,4.277c-10.987-5.762-22.332-10.347-33.857-14.214       c0.948-2.023,1.998-4.149,3.124-6.351C65.763,149.574,76.749,155.105,87.557,160.791z"/>
				</g>
				<g>
					<path style="fill:#58304D;" d="M141.005,90.542c-0.82,0.794-1.665,1.588-2.51,2.433c-6.403-9.143-13.65-17.696-21.666-25.456       c0.999-0.871,1.972-1.716,2.894-2.535C127.381,73.076,134.526,81.527,141.005,90.542z"/>
				</g>
				<g>
					<path style="fill:#58304D;" d="M78.188,122.896c-2.164,3.963-4.133,8.323-3.683,12.816c0.123,1.228,0.459,2.497,1.312,3.389       c0.986,1.031,2.516,1.386,3.938,1.281c3.098-0.229,5.709-2.312,8.041-4.365c10.646-9.372,20.107-20.089,28.087-31.815       c3.015-4.431,6.994-10.454,6.135-16.14c-0.696-4.609-4.655-5.28-8.534-3.59c-9.445,4.114-18.346,14.593-24.651,22.461       C84.829,111.929,81.257,117.274,78.188,122.896z"/>
				</g>
			</g>
			<g>
				<g>
					<path style="fill:#FF676C;" d="M328.37,430.499l10.665-25.454c0.259-0.655,0.692-1.175,1.274-1.585       c1.32-0.891,4.098-2.873,8.052-5.982c0,0,34.401-9.823,51.033-28.634c16.419-18.616,23.743-62.405,23.743-62.405       c2.22-4.492,3.84-8.165,4.897-10.656c0.827-1.938,3.093-2.762,4.949-1.811l26.018,13.023c1.706,0.843,2.466,2.824,1.776,4.563       c-0.891,2.217-2.266,5.541-4.187,9.662c0,0-31.508,25.13-47.562,44.198c-19.027,22.604-40.481,57.776-40.481,57.776       c-3.389,2.493-5.77,4.185-6.8,4.883c-0.369,0.24-0.788,0.427-1.201,0.512l-27.983,6.861       C329.688,436.145,327.199,433.268,328.37,430.499z"/>
				</g>
				<g>
					<path style="fill:#FFACA9;" d="M348.361,397.478c2.999-2.356,6.668-5.376,10.851-9.04c0.853-0.758,1.732-1.514,2.613-2.322       c7.709-6.946,16.92-15.98,26.812-27.163c11.35-12.863,20.384-26.698,27.017-38.382c0.831-1.425,1.584-2.828,2.335-4.18       c1.976-3.606,3.686-6.966,5.148-9.953c10.495,6.249,21.764,11.223,33.452,14.781c-1.47,3.166-3.27,6.83-5.392,10.84       c-1.034,1.98-2.175,4.058-3.397,6.21c-5.857,10.333-13.655,22.273-23.52,33.996c-13.298,15.804-29.346,30.027-41.913,40.222       c-1.036,0.826-2.045,1.629-3.001,2.408c-4.194,3.304-7.879,6.118-10.819,8.298       C362.031,414.451,355.249,405.928,348.361,397.478z"/>
				</g>
				<g>
					<path style="fill:#58304D;" d="M415.655,320.572c0.831-1.425,1.584-2.828,2.335-4.18c10.727,6.233,21.863,11.305,33.209,15.668       c-1.034,1.98-2.175,4.058-3.397,6.21C436.942,332.723,426.206,326.72,415.655,320.572z"/>
				</g>
				<g>
					<path style="fill:#58304D;" d="M359.212,388.438c0.853-0.758,1.732-1.514,2.613-2.322c6,9.412,12.871,18.271,20.543,26.371       c-1.036,0.826-2.045,1.629-3.001,2.408C372.067,406.478,365.295,397.725,359.212,388.438z"/>
				</g>
				<g>
					<path style="fill:#58304D;" d="M423.372,358.838c2.333-3.865,4.49-8.137,4.235-12.644c-0.07-1.232-0.351-2.514-1.164-3.442       c-0.94-1.073-2.453-1.493-3.879-1.45c-3.105,0.094-5.804,2.062-8.222,4.012c-11.042,8.902-20.959,19.199-29.44,30.568       c-3.204,4.296-7.44,10.141-6.829,15.859c0.496,4.635,4.422,5.477,8.371,3.957c9.614-3.701,18.961-13.785,25.601-21.372       C416.263,369.506,420.063,364.32,423.372,358.838z"/>
				</g>
			</g>
			<g>
				<g>
					<path style="fill:#FFE7E1;" d="M321.649,300.778c0,0,16.485-47.116,6.244-91.95c-10.241-44.834-29.767-99.341-29.767-99.341       L424.579,58.48c0,0,15.971,49.625,27.65,121.053c6.769,41.396,2.139,79.869,2.139,79.869L321.649,300.778z"/>
				</g>
				<g>
					<g>
						<g>
							<path style="fill:#A2B7FF;" d="M417.893,142.642c-14.573,10.613-35.064,7.392-45.678-7.182         c-10.613-14.573-7.39-35.063,7.183-45.676c14.573-10.613,35.062-7.393,45.676,7.18         C435.687,111.538,432.466,132.029,417.893,142.642z M380.475,91.264c-13.757,10.019-16.799,29.363-6.781,43.119         c10.02,13.758,29.363,16.799,43.121,6.78s16.798-29.362,6.778-43.12C413.575,84.286,394.233,81.245,380.475,91.264z"/>
						</g>
					</g>
					<g>
						<g>
							<g>
								<g>
									<g>
										<path style="fill:#A2B7FF;" d="M396.382,136.218c-3.202-9.568-5.727-19.334-7.531-29.261            c-1.053,0.996-2.106,1.992-3.159,2.988c2.151,0.494,3.984,1.779,5.711,3.096c2.04,1.556,4.031,3.18,6.028,4.79            c4.211,3.397,8.375,6.852,12.496,10.358c2.69,2.289,6.116-2.005,3.421-4.297c-4.421-3.761-8.891-7.463-13.416-11.098            c-4.081-3.279-8.147-7.071-13.388-8.274c-1.639-0.376-3.463,1.315-3.159,2.988c1.888,10.388,4.504,20.636,7.856,30.648            C392.366,141.514,397.501,139.562,396.382,136.218L396.382,136.218z"/>
									</g>
								</g>
							</g>
							<g>
								<g>
									<g>
										<path style="fill:#A2B7FF;" d="M394.314,128.271c1.435-1.149,2.924-2.227,4.47-3.221c0.757-0.488,1.527-0.956,2.309-1.404            c0.188-0.107,0.376-0.214,0.565-0.319c0.126-0.07,0.252-0.14,0.378-0.209c-0.089,0.048-0.178,0.097-0.267,0.145            c0.433-0.254,0.896-0.47,1.344-0.695c0.679-0.34,1.232-0.748,1.547-1.469c0.264-0.605,0.319-1.452,0.054-2.069            c-0.536-1.249-2.166-2.29-3.539-1.601c-3.577,1.793-6.969,3.902-10.094,6.404c-1.12,0.896-1.559,2.64-0.603,3.836            C391.373,128.788,393.113,129.233,394.314,128.271L394.314,128.271z"/>
									</g>
								</g>
							</g>
						</g>
						<g>
							<g>
								<g>
									<g>
										<path style="fill:#A2B7FF;" d="M399.06,99.458c3.864,4.363,7.85,8.616,11.941,12.766c1.012,1.026,3.06,0.662,3.859-0.438            c0.96-1.322,0.646-2.759-0.438-3.859c-3.725-3.778-7.3-7.61-10.923-11.701c-0.949-1.072-2.6-1.591-3.836-0.603            C398.591,96.479,398.04,98.307,399.06,99.458L399.06,99.458z"/>
									</g>
								</g>
							</g>
							<g>
								<g>
									<g>
										<path style="fill:#A2B7FF;" d="M401.973,111.25c4.192-3.193,8.306-6.486,12.341-9.875            c1.097-0.922,1.574-2.621,0.603-3.836c-0.876-1.097-2.658-1.592-3.836-0.603c-4.035,3.389-8.149,6.681-12.341,9.875            c-1.142,0.87-1.543,2.659-0.603,3.836C399.05,111.789,400.749,112.182,401.973,111.25L401.973,111.25z"/>
									</g>
								</g>
							</g>
						</g>
					</g>
				</g>
			</g>
			<g>
				<g>
					<g>
						<g>
							<g>
								<path style="fill:#58304D;" d="M80.719,303.184c-1.716,5.609-3.406,11.217-5.045,16.877c0,0.026-0.026,0.051-0.026,0.077          c-2.305,7.786-4.507,15.571-6.633,23.408c0,0.026,0,0.026-0.026,0.051c-4.302,15.725-8.349,31.526-12.011,47.405          c-0.461-0.615-0.871-1.255-1.255-1.87c3.585-15.392,7.478-30.707,11.678-45.97v-0.026          c1.946-7.299,3.995-14.495,6.147-21.692v-0.026c1.793-6.275,3.688-12.523,5.609-18.721c0.128-0.461,0.589-0.691,1.024-0.538          C80.617,302.313,80.898,302.748,80.719,303.184z"/>
							</g>
						</g>
						<g>
							<g>
								<g>
									
										<ellipse transform="matrix(0.8362 -0.5484 0.5484 0.8362 -154.3761 93.3306)" style="fill:#FFE7E1;" cx="79.077" cy="305.14" rx="39.786" ry="39.786"/>
								</g>
							</g>
							<g>
								<g>
									<polygon style="fill:#FFA71D;" points="101.631,309.83 92.132,312.602 94.566,322.194 85.249,318.847 81.587,328.045            76.017,319.857 67.645,325.146 67.953,315.251 58.074,314.606 64.13,306.779 56.523,300.451 66.023,297.679            63.589,288.086 72.905,291.433 76.567,282.235 82.137,290.424 90.509,285.134 90.202,295.029 100.08,295.674            94.024,303.501          "/>
								</g>
							</g>
						</g>
					</g>
					<g>
						<g>
							<g>
								<path style="fill:#58304D;" d="M160.111,344.109c-3.253,4.892-6.454,9.834-9.63,14.803          c-4.405,6.838-8.733,13.753-13.01,20.693c-10.449,17.005-20.539,34.292-30.143,51.733c-1.101,1.972-2.177,3.918-3.227,5.89          c-0.666,1.178-1.281,2.331-1.895,3.509c-0.435-0.358-0.871-0.717-1.306-1.127c11.089-20.565,22.87-40.925,35.163-60.901          c3.944-6.428,7.939-12.78,11.985-19.105c3.534-5.506,7.094-10.987,10.679-16.416c0.256-0.384,0.769-0.486,1.153-0.231          C160.264,343.212,160.367,343.725,160.111,344.109z"/>
							</g>
						</g>
						<g>
							<g>
								<g>
									
										<ellipse transform="matrix(0.9584 -0.2855 0.2855 0.9584 -92.0758 59.4878)" style="fill:#FFE7E1;" cx="157.965" cy="345.502" rx="39.786" ry="39.786"/>
								</g>
							</g>
							<g>
								<g>
									<polygon style="fill:#FFA71D;" points="178.302,356.324 168.406,356.323 168.054,366.213 160.049,360.39 153.956,368.192            150.904,358.771 141.385,361.503 144.453,352.09 135.151,348.703 143.158,342.887 137.629,334.68 147.525,334.681            147.876,324.791 155.882,330.615 161.975,322.812 165.027,332.233 174.545,329.501 171.477,338.914 180.78,342.301            172.773,348.117          "/>
								</g>
							</g>
						</g>
					</g>
				</g>
				<g>
					<path style="fill:#58304D;" d="M137.246,408.315c6.345-3.681,13.133-6.911,20.414-7.798c2.911-0.355,5.96-0.309,8.652,0.854       s4.96,3.624,5.246,6.543c0.363,3.716-2.407,6.99-5.34,9.3c-5.794,4.563-12.802,7.276-19.767,9.703       c-7.549,2.631-15.188,5.004-22.899,7.116c-3.289,0.901-19.712,4.433-20.539,2.795c-0.767-1.518,12.214-12.788,15.312-15.345       C124.258,416.588,130.591,412.176,137.246,408.315z"/>
				</g>
			</g>
		</g>
		<g>
			<g>
				<path style="fill:#FFD27B;" d="M324.102,66.898c-1.255,0-2.503-0.196-3.67-0.593c-4.373-1.487-8.121-5.357-10.555-10.896      c-0.593-1.35-1.104-2.754-1.616-4.159c-1.277-3.512-2.483-6.827-4.933-9.237c-5.55-5.458-15.259-3.823-22.42,0.222      c-2.468,1.393-4.893,3.052-7.237,4.655c-4.74,3.24-9.638,6.591-15.347,8.116c-5.947,1.585-12.404,0.917-17.974-1.645      c-0.455,0.384-0.927,0.749-1.418,1.095c-4.858,3.429-10.916,4.674-16.218,3.33c-5.81-1.474-10.509-6.162-11.695-11.666      c-1.274-5.905,1.836-12.396,7.08-14.777c0.644-0.293,1.403-0.006,1.696,0.637c0.292,0.645,0.007,1.404-0.637,1.696      c-4.191,1.903-6.666,7.131-5.636,11.905c0.986,4.575,4.933,8.482,9.821,9.723c4.583,1.158,9.858,0.062,14.112-2.94      c0.141-0.1,0.28-0.201,0.417-0.303c-1.699-1.009-3.286-2.21-4.711-3.59c-4.495-4.352-6.645-9.907-5.75-14.859      c0.553-3.064,2.636-5.993,5.436-7.642c2.404-1.417,5.037-1.75,7.41-0.944c3.098,1.051,5.646,3.977,6.814,7.829      c1.888,6.217-0.084,13.456-4.735,18.586c4.82,1.986,10.277,2.442,15.327,1.091c5.285-1.411,9.79-4.493,14.561-7.755      c2.389-1.634,4.861-3.324,7.425-4.772c7.995-4.516,18.974-6.211,25.475,0.182c2.863,2.816,4.227,6.564,5.545,10.188      c0.492,1.353,0.983,2.705,1.553,4.003c1.241,2.823,4.064,7.811,9.035,9.502c2.23,0.761,4.854,0.571,7.011-0.502      c1.199-0.596,2.769-1.729,3.437-3.738c0.222-0.669,0.947-1.037,1.619-0.811c0.671,0.222,1.034,0.946,0.811,1.619      c-0.736,2.22-2.416,4.076-4.727,5.224C327.774,66.483,325.93,66.898,324.102,66.898z M237.645,27.16      c-1.157,0-2.355,0.343-3.499,1.017c-2.176,1.283-3.791,3.539-4.216,5.892c-0.742,4.109,1.132,8.806,5.012,12.562      c1.486,1.438,3.164,2.66,4.97,3.651c4.447-4.496,6.408-11.084,4.708-16.683c-0.93-3.063-2.868-5.361-5.185-6.147      C238.859,27.256,238.258,27.16,237.645,27.16z"/>
			</g>
			<g>
				<path style="fill:#FFACA9;" d="M44.65,260.907c-0.957,0-1.919-0.053-2.883-0.163c-6.033-0.686-11.212-3.453-14.582-7.793      c-0.433-0.558-0.333-1.362,0.227-1.797c0.558-0.431,1.363-0.331,1.797,0.227c2.943,3.788,7.505,6.21,12.848,6.818      c5.759,0.654,11.689-0.986,15.862-4.389c2.804-2.285,4.933-5.236,6.153-8.408c-6.789,0.93-13.936-0.653-19.413-4.818      c-3.79-2.881-5.614-6.572-4.879-9.871c0.309-1.388,1.07-2.739,2.261-4.013c4.25-4.551,11.737-5.551,17.421-2.316      c5.223,2.969,8.567,9.26,8.32,15.653c-0.025,0.665-0.088,1.329-0.185,1.992c2.963-0.913,5.741-2.398,8.099-4.446      c8.047-6.994,10.274-19.76,5.067-29.065c-0.346-0.616-0.125-1.397,0.493-1.742c0.614-0.347,1.397-0.125,1.742,0.492      c5.776,10.325,3.306,24.489-5.623,32.249c-2.989,2.598-6.591,4.379-10.412,5.33c-1.249,4.145-3.851,8.036-7.427,10.949      C55.473,259.107,50.167,260.907,44.65,260.907z M52.232,225.076c-3.153,0-6.26,1.166-8.32,3.372      c-0.875,0.937-1.425,1.886-1.634,2.82c-0.758,3.404,2.817,6.431,3.931,7.277c5.251,3.994,12.209,5.348,18.666,4.153      c0.195-0.916,0.312-1.838,0.348-2.76c0.21-5.463-2.615-10.82-7.028-13.329C56.376,225.575,54.294,225.076,52.232,225.076z"/>
			</g>
			<g>
				<path style="fill:#FFA71D;" d="M464.091,292.459c-0.167,0-0.336-0.033-0.499-0.102c-4.102-1.735-6.84-6.218-6.51-10.659      c0.328-4.442,3.696-8.472,8.008-9.583c1.393-0.36,2.791-0.423,4.142-0.485c0.868-0.039,1.736-0.076,2.591-0.201      c3.984-0.582,7.552-3.274,9.089-6.858c1.575-3.671,0.932-8.115-1.598-11.058c-1.078-1.255-2.455-2.242-3.911-3.287      c-1.532-1.099-3.116-2.235-4.402-3.747c-2.622-3.082-3.601-7.425-2.557-11.333s4.059-7.184,7.869-8.547      c0.661-0.242,1.398,0.108,1.637,0.774c0.239,0.665-0.108,1.398-0.774,1.636c-3.03,1.084-5.427,3.689-6.256,6.797      c-0.831,3.109-0.052,6.563,2.032,9.013c1.084,1.274,2.474,2.271,3.945,3.326c1.514,1.087,3.081,2.21,4.36,3.698      c3.153,3.667,3.962,9.187,2.011,13.737c-1.881,4.385-6.226,7.675-11.072,8.383c-0.941,0.137-1.893,0.182-2.845,0.226      c-1.278,0.057-2.483,0.112-3.619,0.405c-3.281,0.846-5.844,3.912-6.095,7.293c-0.251,3.379,1.834,6.789,4.955,8.11      c0.652,0.276,0.956,1.027,0.68,1.678C465.063,292.165,464.589,292.459,464.091,292.459z"/>
			</g>
		</g>
	</g>
</g>















</svg>
