<svg width="1440" height="722" viewBox="0 0 1440 722" fill="none" xmlns="http://www.w3.org/2000/svg">
<g opacity="0.7">
<path opacity="0.7" fill-rule="evenodd" clip-rule="evenodd" d="M1167.25 393.285C1183.43 392.446 1203.44 401.881 1205.16 419.452C1206.42 432.219 1206.03 444.949 1207.97 457.697C1209.52 467.885 1212.8 477.665 1217.28 486.945C1221.58 495.869 1230.51 503.466 1232.83 512.999C1234.31 519.074 1233.48 527.619 1231.44 533.561C1228.96 540.785 1230.28 540.214 1235.22 546.276C1244.91 558.156 1253.64 570.338 1259.81 584.526C1268.69 604.962 1274.52 628.849 1271.22 651.219C1270.8 654.06 1270.3 664.254 1266.39 664.967C1262.02 665.763 1264.06 659.933 1264.3 658.05C1265.78 646.033 1267.1 635.529 1265.31 623.325C1258.39 576.236 1224.58 545.211 1202.57 505.246C1201.36 503.185 1198.8 498.277 1197.02 495.039C1194.22 489.928 1191.4 480.201 1187.61 476.411C1180.46 469.271 1187.03 483.626 1188.42 486.366C1190.18 489.832 1192.12 493.517 1193.93 496.554C1202.18 510.634 1211.4 526.003 1219.93 540.517C1183.04 548.916 1157.06 504.6 1147.16 475.465C1139.01 451.461 1129.25 395.339 1167.25 393.285Z" fill="#11BDCF" fill-opacity="0.15"/>
<path opacity="0.7" fill-rule="evenodd" clip-rule="evenodd" d="M1384.08 348.708C1357.03 350.852 1339.67 368.683 1331.59 393.623C1327.23 407.063 1326.74 420.87 1324.31 434.682C1320.67 455.462 1312.84 471.21 1297.53 486.014C1292.79 490.6 1289.29 495.307 1286.81 500.344C1281.87 505.372 1277.58 511.063 1274.43 518.02C1270.4 526.905 1269.26 537.565 1273.91 546.424C1275.16 548.805 1278.28 553.585 1281.51 555.757C1269.41 581.521 1262.75 609.738 1263.5 637.919C1263.96 654.931 1264.79 671.95 1265.76 688.94C1266.02 693.502 1267.5 701.036 1269.74 693.385C1271.78 686.386 1269.22 675.4 1268.98 668.089C1267.83 632.473 1266.84 600.09 1281.51 566.814C1283.05 563.327 1284.68 559.867 1286.38 556.435C1286.48 556.377 1286.57 556.307 1286.67 556.24C1286.73 556.289 1286.79 556.343 1286.86 556.392C1286.96 556.199 1287.11 555.969 1287.29 555.711C1287.77 555.209 1288.2 554.574 1288.6 553.865C1289.91 552.063 1291.38 549.946 1291.39 548.787C1291.39 548.778 1291.38 548.764 1291.38 548.755C1300.46 533.939 1310.87 519.94 1321.49 506.215C1321.42 506.314 1333.02 490.524 1331.23 499.256C1330.36 503.465 1321.82 511.479 1318.38 515.936C1310.75 525.853 1301.79 538.418 1294.35 550.568C1293.35 551.143 1291.93 553.967 1290.91 556.07C1290.34 557.136 1289.82 558.21 1289.3 559.146C1315.67 567.853 1336.19 550.315 1350.18 529.916C1350.19 529.892 1350.21 529.868 1350.22 529.844C1354.48 524.207 1358.84 518.61 1364.29 514.155C1373.38 506.72 1383.11 505.408 1393.83 501.749C1423.05 491.772 1435.48 453.926 1439.43 425.845C1443.88 394.164 1422.1 345.584 1384.08 348.708Z" fill="#DBF5F8"/>
<path opacity="0.7" fill-rule="evenodd" clip-rule="evenodd" d="M1330.66 259.989C1302.9 288.854 1289.49 328.89 1278.87 366.528C1267.02 408.566 1259.18 451.252 1258.88 494.958C1258.68 523.674 1257.9 552.568 1259.58 581.25C1260.17 591.436 1261.19 601.641 1262.81 611.717C1262.94 612.546 1266.56 635.045 1270.01 629.802C1271.98 626.821 1266.31 606.462 1265.88 603.071C1263.47 583.972 1262.91 564.733 1263.03 545.496C1263.22 513.823 1262.28 482.312 1265.5 450.756C1265.98 446.045 1266.36 441.096 1267.48 436.487C1268.66 431.587 1267.15 433.726 1271.02 431.786C1274.79 429.9 1279.44 430.169 1283.34 427.803C1298.83 418.418 1306.76 394.309 1312.92 378.491C1319.98 360.402 1324.27 341.113 1327.69 322.077C1330.2 308.09 1332 294.189 1333.02 280.022C1333.34 275.558 1333.36 270.889 1334.24 266.499C1334.47 265.314 1335.66 263.22 1335.62 262.171C1335.53 259.951 1334.19 258.646 1334.08 256.781C1332.91 257.826 1331.77 258.896 1330.66 259.989Z" fill="#11BDCF" fill-opacity="0.15"/>
<path opacity="0.7" fill-rule="evenodd" clip-rule="evenodd" d="M1179.31 644.567C1179.31 692.303 1218.04 731 1265.81 731C1313.59 731 1352.31 692.303 1352.31 644.567" fill="#FCEACF"/>
<path opacity="0.7" fill-rule="evenodd" clip-rule="evenodd" d="M1272.75 644.842H1268.18C1268.5 639.112 1268.92 633.392 1269.88 627.726C1273.55 606.055 1285.01 574.227 1310.15 570.709C1311.08 570.578 1314.49 570.556 1318.63 570.798C1320.59 569.704 1322.78 569.043 1325.09 568.891C1346.5 567.314 1370.41 584.572 1380.74 602.531C1389.06 617.011 1387.66 636.025 1382.52 651.408C1379.07 661.707 1371.56 676.391 1359.03 676.534C1343.35 676.713 1342.59 657.35 1342.29 646.031C1341.89 630.981 1339.98 617.871 1328.11 607.613C1325.35 605.224 1322.33 603.121 1319.53 600.765C1315.16 597.076 1310.32 593.3 1309.76 587.197C1308.98 578.779 1313.74 577.264 1321 578.828C1322.24 579.094 1334.71 584.685 1332.86 580.266C1332.3 578.916 1330.24 577.846 1327.64 577.044C1320.91 576.314 1312.9 575.466 1310.59 575.973C1285.71 581.426 1276.03 615.861 1273.45 637.739C1273.18 640.1 1272.95 642.47 1272.75 644.842V644.842Z" fill="#DBF5F8"/>
</g>
<path fill-rule="evenodd" clip-rule="evenodd" d="M1404.02 146.294C1400.48 134.512 1392.18 125.29 1383.57 116.84C1366.79 100.391 1357.77 90.2205 1351.8 66.1583C1348.28 52.0067 1344.7 37.0103 1333.55 26.7432C1325.43 19.2664 1311.46 12.9846 1300.6 18.3386C1283.9 28.3008 1279.41 48.745 1281.1 67.0515C1283.18 89.7412 1293.79 103.732 1314.17 112.089C1325.65 116.796 1333.28 123.006 1339.51 133.828C1344.5 142.481 1347.41 153.317 1353.67 161.162C1363.04 172.888 1374.76 178.101 1389.21 176.153C1375.67 151.276 1359.86 126.164 1340.79 105.218C1339.01 103.112 1328.48 95.0524 1330.6 91.4635C1332.94 87.5119 1343.75 102.356 1343.68 102.266C1349.22 108.622 1354.35 115.377 1359.38 122.197C1359.37 122.203 1359.35 122.207 1359.34 122.214C1364.52 129.211 1369.67 136.312 1374.71 143.502C1376.75 146.543 1378.74 149.623 1380.64 152.781C1383.43 157.414 1387.86 170.563 1392.42 173.412C1393.4 174.021 1394.3 174.362 1395.15 174.502C1398.26 179.598 1401.29 184.736 1404.18 189.934C1411.7 203.509 1418.17 217.844 1421.13 233.171C1422 237.644 1421.38 254.379 1424.44 257.608C1430.03 263.515 1428.39 252.14 1428.06 248.706C1425.28 220.274 1415.07 196.051 1400.24 172.148C1404.79 166.202 1405.45 151.068 1404.02 146.294Z" fill="#FE747D" fill-opacity="0.25"/>
<path fill-rule="evenodd" clip-rule="evenodd" d="M1212.65 160.032C1218.54 153.097 1232.7 151.92 1241.36 152.384C1252.07 152.959 1263.08 155.565 1273.28 158.717C1290.07 163.909 1306.39 173.383 1321.18 182.553C1322.97 183.658 1344.93 196.854 1342.98 199.17C1341.06 201.464 1319.5 185.789 1314.69 183.087C1304.44 177.321 1295.04 170.501 1283.74 166.692C1272.03 162.748 1259.66 161.187 1247.35 161.295C1245.77 161.309 1240.62 160.208 1240.51 162.543C1240.4 164.826 1248.93 163.635 1250.43 163.649C1256.64 163.706 1262.88 164.289 1269 165.364C1280.47 167.378 1291.25 171.435 1301.07 177.658C1298.33 184.025 1291.76 186.96 1284.87 185.367C1278.91 183.989 1273.11 180.593 1267.28 179.611C1263.26 178.935 1259.24 179.337 1255.34 180.467C1245.07 183.451 1239.15 189.562 1227.85 185.311C1219 181.979 1204.19 170.005 1212.65 160.032Z" fill="#FE747D" fill-opacity="0.25"/>
<path fill-rule="evenodd" clip-rule="evenodd" d="M1219.31 94.4022H1222.1C1221.9 90.8684 1221.65 87.3404 1221.05 83.8462C1218.81 70.7485 1211.8 51.5114 1196.44 49.3855C1195.88 49.3062 1193.79 49.2929 1191.27 49.4393C1190.07 48.7782 1188.73 48.3784 1187.32 48.2865C1174.24 47.3333 1159.63 57.7638 1153.32 68.6183C1148.23 77.3699 1149.09 88.8618 1152.23 98.1595C1154.34 104.384 1158.93 113.259 1166.58 113.346C1176.16 113.454 1176.62 101.751 1176.81 94.9093C1177.06 85.8136 1178.22 77.89 1185.47 71.6901C1187.16 70.2459 1189.01 68.9752 1190.71 67.5508C1193.39 65.3215 1196.34 63.039 1196.68 59.3509C1197.16 54.2626 1194.25 53.3469 1189.82 54.2923C1189.06 54.4531 1181.44 57.8322 1182.57 55.1614C1182.92 54.3455 1184.17 53.6989 1185.76 53.2145C1189.87 52.773 1194.77 52.2607 1196.18 52.5667C1211.38 55.8629 1217.29 76.675 1218.87 89.8979C1219.04 91.3952 1219.19 92.8975 1219.31 94.4022H1219.31Z" fill="#FE747D" fill-opacity="0.25"/>
<g opacity="0.5">
<path fill-rule="evenodd" clip-rule="evenodd" d="M210.183 232.464C215.162 225.37 224.403 207.352 231.411 204.816C235.925 203.184 234.609 220.074 234.665 223.295C234.882 235.755 233.668 248.136 232.169 260.492C229.468 282.775 220.636 302.62 208.523 321.585C202.289 331.344 194.978 341.221 184.852 347.31C180.191 350.115 174.582 350.584 169.979 353C164.618 355.813 167.537 353.539 165.121 359.121C161.766 366.871 160.693 376.87 159.14 385.139C152.013 423.102 134.756 623.779 137.748 662.394C138.013 665.817 133.237 666.635 132.999 662.457C131.731 640.302 142.698 486.881 148.23 436.708C153.763 386.535 159.362 342.21 164.975 324.852C171.786 303.792 184.086 278.467 194.325 258.828C199.081 249.705 204.265 240.895 210.183 232.464Z" fill="#DBF5F8"/>
<path fill-rule="evenodd" clip-rule="evenodd" d="M247.142 478.541C260.1 469.036 274.125 486.975 262.4 496.482C255.918 501.736 249.142 499.867 245.327 495.488C242.85 498.504 240.532 501.658 238.305 504.322C231.519 512.44 225.106 520.751 218.976 529.256C206.243 546.926 195.331 565.593 183.921 583.919C172.662 602.005 161.492 620.184 151.287 638.729C142.641 654.441 131.118 672.925 128.158 690.15C132.649 653.619 149.69 618.506 169.984 586.301C190.112 554.361 213.212 519.478 244.378 494.271C241.206 489.611 241.118 482.957 247.142 478.541Z" fill="#DBF5F8"/>
<path fill-rule="evenodd" clip-rule="evenodd" d="M1.26701 389.448C8.51792 390.864 20.3658 407.254 26.3427 413.499C33.4459 420.92 39.8902 428.83 45.9648 437.117C59.042 454.955 70.7373 473.921 80.6823 493.699C96.8952 525.94 109.884 559.038 119.31 594.147C125.08 615.639 128.816 637.915 131.031 660.035C131.449 664.206 135.826 696.369 129.519 697.236C123.846 698.017 125.598 672.814 125.324 669.386C122.231 630.71 112.964 593.078 100.073 556.624C97.2655 548.683 94.657 538.957 90.1667 531.81C86.9331 526.663 90.1436 528.458 84.4609 526.51C79.5814 524.836 74.022 525.245 69.0253 523.196C58.1705 518.748 49.4789 510.114 41.8602 501.428C27.0542 484.548 15.3213 466.287 9.20542 444.658C5.81275 432.665 2.69506 420.603 0.964929 408.239C0.517375 405.043 -3.40324 388.535 1.26701 389.448Z" fill="#DBF5F8"/>
<path fill-rule="evenodd" clip-rule="evenodd" d="M29.8811 116.753C57.1937 164.083 79.6382 216.074 94.1307 268.732C102.911 300.638 109.052 333.378 115.153 365.881C124.6 416.208 133.535 466.531 136.077 517.752C138.634 569.27 143.691 628.69 126.808 678.31C135.241 627.932 127.212 574.309 125.791 523.619C125.111 499.42 123.143 475.458 120.561 451.4C118.055 428.063 113.961 404.838 110.148 381.684C108.291 370.408 106.341 359.149 104.355 347.896C103.762 344.538 103.512 334.576 101.38 332.282C99.235 329.974 88.29 329.032 84.8538 327.339C77.9344 323.927 71.4258 319.08 65.6655 313.96C54.623 304.143 45.0166 291.317 37.4344 278.674C19.8912 249.418 12.8775 213.716 13.232 179.834C13.3001 173.256 23.8877 102.419 19.6355 101.443C19.8916 101.144 20.1337 100.834 20.3621 100.513C23.5813 105.899 26.7403 111.321 29.8811 116.753Z" fill="#DBF5F8"/>
<path fill-rule="evenodd" clip-rule="evenodd" d="M324.675 287.453C325.097 286.846 327.839 282.621 326.458 282.891C329.27 282.342 322.59 287.55 329.597 284.354C326.27 287.494 328.19 291.572 328.235 295.798C328.307 302.658 327.158 309.463 325.865 316.176C323.822 326.788 320.778 337.105 316.36 346.975C306.73 368.485 290.378 389.191 270.965 402.639C261.381 409.278 251.988 411.539 241.058 414.595C234.154 416.526 233.607 420.095 229.942 426.789C222.313 440.732 214.819 454.624 208.091 469.038C200.056 486.249 192.257 503.478 184.9 520.992C160.115 579.987 139.943 641.106 129.349 704.358C129.089 667.084 137.719 628.694 148.604 593.165C156.534 567.28 166.856 542.327 177.866 517.627C180.534 511.643 184.577 503.946 185.71 497.339C186.503 492.711 184.078 488.259 182.967 483.383C178.638 464.394 178.948 443.121 182.75 424.031C186.941 402.981 199.064 393.211 219.57 390.229C227.07 389.138 236.602 389.538 243.479 386.343C250.971 382.863 254.061 371.426 258.322 364.085C269.765 344.364 283.361 325.45 298.973 308.833C303.295 304.232 307.944 299.987 312.876 296.052C315.986 293.57 322.556 290.511 324.675 287.453Z" fill="#DBF5F8"/>
<path opacity="0.5" fill-rule="evenodd" clip-rule="evenodd" d="M94.7326 664.102H167.508C170.78 664.102 173.433 666.752 173.433 670.022C173.433 670.311 173.411 670.599 173.369 670.885L167.744 708.997C166.03 720.615 156.052 729.222 144.299 729.222H117.941C106.188 729.222 96.2109 720.615 94.4962 708.997L88.8713 670.885C88.3939 667.651 90.6311 664.642 93.8682 664.165C94.1544 664.123 94.4433 664.102 94.7326 664.102Z" fill="#FE747D"/>
</g>
<g opacity="0.6">
<path fill-rule="evenodd" clip-rule="evenodd" d="M272.262 399.49C267.654 394.081 264.536 387.453 265.057 380.025C266.558 358.625 296.349 363.333 302.143 374.134C307.938 384.935 307.25 412.333 299.76 414.263C296.774 415.033 290.411 413.147 283.935 409.244L288 438H264L272.262 399.49Z" fill="#915B3C"/>
<path fill-rule="evenodd" clip-rule="evenodd" d="M270.418 404.308C267.406 390.906 258.825 381.771 260.135 375.782C261.009 371.789 263.338 369.305 267.121 368.332C269.078 360.416 275.39 357.048 286.056 358.23C302.055 360.004 311.819 366.648 307.602 381.268C303.726 381.268 299.046 379.866 292.576 382.268C290.522 383.03 289.054 385.393 288.17 389.358H285.246C282.408 384.653 279.609 382.924 276.851 384.171C274.092 385.418 273.465 388.447 274.97 393.259L273.529 404.308H270.418Z" fill="#191847"/>
<path fill-rule="evenodd" clip-rule="evenodd" d="M197 563H312C320.837 563 328 570.163 328 579V671C328 679.837 320.837 687 312 687H197C188.163 687 181 679.837 181 671V579C181 570.163 188.163 563 197 563ZM213 591C210.791 591 209 592.791 209 595V655C209 657.209 210.791 659 213 659H296C298.209 659 300 657.209 300 655V595C300 592.791 298.209 591 296 591H213Z" fill="#C5CFD6"/>
<path fill-rule="evenodd" clip-rule="evenodd" d="M427.159 682C407.443 657.924 394.103 640.075 387.138 628.454C375.213 608.555 365.453 590.848 362.373 584.084C355.028 567.955 379.282 560.403 384.771 567.926C393.079 579.312 410.822 615.143 438 675.417L427.159 682Z" fill="#B28B67"/>
<path fill-rule="evenodd" clip-rule="evenodd" d="M386.758 675L350.065 582.637C342.217 565.8 380.116 554.732 385.883 562.568C398.977 580.357 430.099 650.534 434 655.834L386.758 675Z" fill="#305B8A"/>
<path fill-rule="evenodd" clip-rule="evenodd" d="M289.033 656.477C296.181 646.051 322.179 610.974 336.339 596.461C340.408 592.291 344.379 588.288 348.134 584.557C359.296 573.47 381.524 592.106 370.382 602.205C342.635 627.355 302.151 661.307 298.769 664.334C294.028 668.577 284.541 663.029 289.033 656.477Z" fill="#915B3C"/>
<path fill-rule="evenodd" clip-rule="evenodd" d="M290.704 651.767C288.242 653.794 286.641 655.45 285.899 656.734C284.998 658.296 283.942 660.725 282.733 664.021C284.544 665.067 300.826 674.467 331.578 692.222C335.27 688.759 335.845 686.07 333.304 684.157C330.762 682.243 328.665 680.629 327.012 679.315L310.152 656.087C309.828 655.64 309.202 655.54 308.755 655.865C308.748 655.87 308.74 655.876 308.733 655.882L305.23 658.579C302.016 658.299 299.618 657.702 298.035 656.788C296.749 656.045 295.273 654.501 293.606 652.154L293.606 652.154C292.967 651.253 291.719 651.041 290.818 651.681C290.779 651.708 290.741 651.737 290.704 651.767Z" fill="#353535"/>
<path fill-rule="evenodd" clip-rule="evenodd" d="M418.678 678.402C417.559 681.388 417 683.623 417 685.106C417 686.909 417.3 689.54 417.901 693C419.993 693 438.794 693 474.303 693C475.769 688.155 474.923 685.539 471.765 685.152C468.607 684.766 465.984 684.417 463.895 684.106L437.68 672.419C437.176 672.194 436.584 672.421 436.359 672.925C436.356 672.934 436.352 672.942 436.348 672.951L434.663 677.039C431.74 678.403 429.364 679.085 427.537 679.085C426.052 679.085 424.001 678.485 421.384 677.286L421.384 677.285C420.38 676.825 419.193 677.266 418.733 678.27C418.713 678.313 418.695 678.357 418.678 678.402Z" fill="#353535"/>
<path fill-rule="evenodd" clip-rule="evenodd" d="M336.862 587.25C306.365 582.282 285.938 578.884 275.58 577.058C246.057 571.852 237.448 555.965 242.538 521.302H296.934C304.133 523.381 334.21 536.237 387.167 559.872C396.695 564.602 394.921 578.548 393.179 583.142C393.108 583.329 377.046 610.853 344.992 665.713L300.494 637.366L336.946 590.59C337.908 588.651 337.88 587.538 336.862 587.25Z" fill="#2A4F77"/>
<path fill-rule="evenodd" clip-rule="evenodd" d="M340.781 508.212L372.68 531.635C381.331 533.97 388.559 536.874 394.364 540.349C395.735 541.598 397.392 544.128 391.705 543.691C386.019 543.254 380.018 543.049 379.233 544.989C378.449 546.929 381.89 549.248 380.304 551.865C379.247 553.61 374.251 549.235 365.318 538.741L333.73 525.643L340.781 508.212ZM218.308 509.02L239.205 509.102C226.302 550.756 219.336 572.857 218.308 575.406C215.994 581.14 220.891 589.874 222.985 594.567C216.165 597.619 216.891 586.317 208.288 590.32C200.435 593.973 194.462 600.593 185.389 594.994C184.274 594.306 183.051 591.715 186.005 589.69C193.362 584.645 203.965 575.815 205.398 572.908C207.352 568.945 211.655 547.649 218.308 509.02Z" fill="#915B3C"/>
<path fill-rule="evenodd" clip-rule="evenodd" d="M277.695 421.332L286.342 419.849C318.426 447.564 331.603 500.809 370.93 529.015L361.464 540.748C293.24 532.301 276.33 467.355 277.695 421.332Z" fill="#E5995A"/>
<path fill-rule="evenodd" clip-rule="evenodd" d="M240 530C274.672 530 300.176 530 316.511 530C320.008 530 319.349 524.952 318.843 522.404C313.011 493.004 290.241 461.312 290.241 419.461L268.172 416C249.917 445.358 243.605 481.505 240 530Z" fill="#DDE3E9"/>
<path fill-rule="evenodd" clip-rule="evenodd" d="M240.615 444.858C237.41 443.937 234.871 441.788 233 438.411C224.934 423.856 227.847 415.842 236.467 413.208C245.088 410.574 252.775 416 266.51 416C267.257 416 267.941 416.047 268.563 416.141L275.472 416.535C295.294 483.715 300.761 528.537 291.872 551H231.652C228.084 559.32 224.67 566.32 221.409 572H205C203.456 522.067 215.327 479.686 240.615 444.858Z" fill="#F2AB3E"/>
<path fill-rule="evenodd" clip-rule="evenodd" d="M244.765 516.498C246.659 532.344 249.737 543.845 254 551H231.652C235.814 541.295 240.185 529.794 244.765 516.498Z" fill="black" fill-opacity="0.1"/>
</g>
<g opacity="0.6">
<path fill-rule="evenodd" clip-rule="evenodd" d="M1096.52 351.795C1101.76 345.643 1105.31 338.103 1104.71 329.654C1103.01 305.311 1069.14 310.666 1062.55 322.952C1055.97 335.239 1056.75 366.404 1065.26 368.6C1068.66 369.475 1075.89 367.33 1083.25 362.89L1078.63 395.6H1105.92L1096.52 351.795Z" fill="#B28B67"/>
<path fill-rule="evenodd" clip-rule="evenodd" d="M1088.03 338.574C1088.93 337.96 1089.99 337.588 1091.14 337.588C1094.28 337.588 1096.82 340.389 1096.82 343.275C1096.82 346.278 1095.4 348.6 1093.38 349.585C1094.46 351.699 1095.55 353.234 1096.82 353.513C1101.73 353.015 1108.19 340.796 1108.19 330.763C1108.19 319.781 1099.46 310.288 1083.18 310.288C1068.55 310.288 1063 316.323 1062.72 321.663C1068.99 323.387 1079.94 324.05 1095.68 323.938V325.075L1082.04 326.213L1079.77 333.038C1083.39 332.767 1085.97 335.25 1088.03 338.574Z" fill="#191847"/>
<path d="M1117.28 687.938C1068.94 687.938 1029.75 650.506 1029.75 604.331C1029.75 558.157 1068.94 520.725 1117.28 520.725C1165.63 520.725 1204.82 558.157 1204.82 604.331C1204.82 650.506 1165.63 687.938 1117.28 687.938Z" fill="#C5CFD6"/>
<path fill-rule="evenodd" clip-rule="evenodd" d="M951.863 675.038C966.429 642.781 976.964 614.692 981.192 599.872C988.432 574.498 993.939 552.169 995.332 543.831C998.651 523.947 969.796 522.789 965.982 532.671C960.209 547.628 950.131 596.77 938.022 670.997L951.863 675.038ZM1120.82 573.805C1107.46 568.519 1060.66 551.978 1038.08 547.298C1031.6 545.954 1025.31 544.705 1019.4 543.575C1001.83 540.22 992.729 571.932 1009.65 574.369C1051.79 580.437 1111.53 586.704 1116.64 587.407C1123.81 588.393 1129.22 577.127 1120.82 573.805Z" fill="#B28B67"/>
<path fill-rule="evenodd" clip-rule="evenodd" d="M1008.62 534.849L1080.91 498.028V490.013H1072.31C1002.37 507.844 966.636 519.271 965.097 524.294C965.081 524.348 965.065 524.403 965.052 524.457C965.016 524.503 964.982 524.549 964.948 524.596C951.088 543.668 942.787 636.781 940.063 643.753L966.622 647.717C976.781 610.023 1009.28 583.763 1008.42 538.617C1008.65 537.293 1008.71 536.037 1008.62 534.849Z" fill="#1F28CF"/>
<path fill-rule="evenodd" clip-rule="evenodd" d="M1074.9 556.716C1081.51 555.391 1087.6 554.209 1092.82 553.294C1126.48 547.386 1136.3 529.354 1130.5 490.013L1068.47 490.013C1058.33 492.925 1005.68 515.02 978.355 526.772C960.272 534.551 965.973 562.59 976.213 569.887C976.268 570.335 976.453 570.639 976.781 570.775C1031.87 593.619 1075.44 581.633 1090 585.463L1096.73 564.21L1074.9 556.716Z" fill="#2B44FF"/>
<path fill-rule="evenodd" clip-rule="evenodd" d="M1116.25 570.427C1119.86 570.773 1122.42 571.316 1123.94 572.056C1125.78 572.955 1128.32 574.575 1131.56 576.915C1130.51 579.053 1121.15 598.274 1103.45 634.576C1097.77 633.657 1095.52 631.487 1096.7 628.066C1097.87 624.645 1098.83 621.789 1099.55 619.499L1100.67 586.869C1100.69 586.241 1101.21 585.75 1101.84 585.772C1101.85 585.772 1101.86 585.773 1101.87 585.773L1106.89 586.089C1109.74 583.781 1111.62 581.693 1112.53 579.824C1113.27 578.306 1113.68 575.911 1113.76 572.637L1113.76 572.637C1113.79 571.381 1114.83 570.387 1116.09 570.418C1116.14 570.419 1116.2 570.422 1116.25 570.427Z" fill="#E4E4E4"/>
<path fill-rule="evenodd" clip-rule="evenodd" d="M958.493 669.057C959.764 672.454 960.4 674.996 960.4 676.683C960.4 678.734 960.059 681.727 959.376 685.663C956.998 685.663 935.624 685.663 895.256 685.663C893.59 680.151 894.551 677.175 898.141 676.736C901.731 676.296 904.714 675.899 907.088 675.545L936.891 662.252C937.464 661.996 938.136 662.254 938.392 662.827C938.396 662.837 938.4 662.847 938.404 662.857L940.32 667.507C943.643 669.058 946.344 669.834 948.422 669.834C950.11 669.834 952.441 669.152 955.416 667.787L955.416 667.787C956.557 667.264 957.907 667.765 958.43 668.907C958.453 668.957 958.474 669.007 958.493 669.057Z" fill="#E4E4E4"/>
<path fill-rule="evenodd" clip-rule="evenodd" d="M1012.82 467.412L976.557 494.057C966.722 496.712 958.505 500.016 951.906 503.968C950.347 505.389 948.463 508.268 954.928 507.77C961.392 507.273 968.215 507.04 969.107 509.247C969.999 511.453 966.087 514.091 967.89 517.068C969.092 519.053 974.771 514.077 984.927 502.14L1020.84 487.24L1012.82 467.412ZM1176.92 456.314L1156.9 459.942C1180.14 506.08 1192.59 530.475 1194.24 533.127C1197.96 539.093 1194.21 549.844 1192.79 555.515C1201.03 557.587 1197.98 545.07 1208.4 547.854C1217.92 550.396 1225.91 556.631 1234.96 548.568C1236.08 547.577 1236.93 544.432 1233.23 542.747C1223.99 538.549 1210.38 530.752 1208.2 527.779C1205.23 523.725 1194.81 499.903 1176.92 456.314Z" fill="#B28B67"/>
<path fill-rule="evenodd" clip-rule="evenodd" d="M1004.37 470.309C999.707 469.974 994.632 470.747 989.191 472.582C986.513 473.484 985.074 476.388 985.976 479.067C986.5 480.623 987.699 481.761 989.136 482.265C988.095 483.025 987.045 483.78 985.985 484.532L995.133 503.219C1033.63 484.013 1069.81 469.533 1086.3 437.826C1091.84 427.184 1089.96 391.037 1090.49 377.887L1078.33 372.897C1061.38 407.952 1038.45 441.582 1004.37 470.309Z" fill="#0E95A4"/>
<path fill-rule="evenodd" clip-rule="evenodd" d="M1133.2 500.148C1097.46 504.076 1069.33 504.076 1048.81 500.148C1046.26 499.661 1046.37 488.694 1047.55 485.698C1065.92 439.055 1077.99 404.91 1077.99 372.512C1081.36 374.273 1087.26 374.537 1095.68 373.304C1118.32 406.69 1128.73 444.998 1133.2 500.148Z" fill="#08384D"/>
<path fill-rule="evenodd" clip-rule="evenodd" d="M1139.84 505.662C1141.05 504.52 1141.69 502.807 1141.38 501.042L1140.78 497.681C1140.38 495.404 1138.53 493.745 1136.35 493.486C1135.97 491.779 1135.64 490.084 1135.37 488.401C1133.07 474.187 1137 460.249 1136.81 446.563C1155.09 462.168 1171.49 489.115 1186.01 527.404L1207.48 521.082C1206.66 518.036 1205.81 515.028 1204.93 512.058C1207.41 510.649 1210.31 504.193 1208.22 503.112C1206.07 501.997 1203.79 501.211 1201.39 500.749C1181.7 441.418 1149.51 398.026 1104.81 370.575H1098.67L1091.88 370.575C1095.68 420.945 1043.11 530.911 1061.36 624.827C1095.11 632.367 1143.28 608.907 1190.18 627.65C1188.43 589.829 1153.48 545.398 1139.84 505.662V505.662Z" fill="#11BDCF"/>
<path fill-rule="evenodd" clip-rule="evenodd" d="M1100.11 371.713L1105.98 389.76L1094.17 403.289L1104.84 413.92L1079.02 458.163L1110.6 414.009L1100.11 403.289L1110.6 391.333L1100.11 371.713Z" fill="black" fill-opacity="0.1"/>
<path fill-rule="evenodd" clip-rule="evenodd" d="M1086.59 475.225C1089.1 475.225 1091.14 473.188 1091.14 470.675C1091.14 468.162 1089.1 466.125 1086.59 466.125C1084.08 466.125 1082.04 468.162 1082.04 470.675C1082.04 473.188 1084.08 475.225 1086.59 475.225ZM1080.91 501.388C1083.42 501.388 1085.45 499.351 1085.45 496.838C1085.45 494.325 1083.42 492.288 1080.91 492.288C1078.39 492.288 1076.36 494.325 1076.36 496.838C1076.36 499.351 1078.39 501.388 1080.91 501.388ZM1079.77 527.55C1082.28 527.55 1084.32 525.513 1084.32 523C1084.32 520.487 1082.28 518.45 1079.77 518.45C1077.26 518.45 1075.22 520.487 1075.22 523C1075.22 525.513 1077.26 527.55 1079.77 527.55Z" fill="black" fill-opacity="0.4"/>
</g>
</svg>
